<?xml version="1.0" encoding="UTF-8" standalone="no"?><svg xmlns="http://www.w3.org/2000/svg" xmlns:xlink="http://www.w3.org/1999/xlink" data-name="Layer 1" fill="#000000" height="2606.2" preserveAspectRatio="xMidYMid meet" version="1" viewBox="-1.0 184.9 2702.5 2606.2" width="2702.5" zoomAndPan="magnify"><g id="change1_1"><path d="M577.83,921.17,446.64,1052.36C332.25,937.84,174.15,867-.5,867V650.2C227.69,662.22,432.05,764.13,577.83,921.17Z" fill="#ff5000"/></g><g id="change2_1"><path d="M631.5,1499.5v-.5c0-174.39-70.64-332.29-184.86-446.64L577.83,921.17c140.87,151.75,227,355,227.17,578.33Z" fill="#ff5b10"/></g><g id="change3_1"><path d="M805,1499.5v.5c0,223.3-86,426.51-226.69,578.31L446.14,1946.14C560.55,1831.86,631.36,1674,631.5,1499.5Z" fill="#ff7637"/></g><g id="change4_1"><path d="M578.31,2078.31C432.5,2235.65,227.94,2337.77-.5,2349.8V2131c174.39,0,332.29-70.64,446.64-184.86Z" fill="#ff9464"/></g><path d="M631.5,1499v.5c-.14,174.45-71,332.36-185.36,446.64S173.89,2131-.5,2131V867c174.65,0,332.75,70.84,447.14,185.36C560.86,1166.71,631.5,1324.61,631.5,1499Z" fill="none" stroke="#000000" stroke-miterlimit="10"/><g id="change5_1"><path d="M631.5,1499v.5c-.14,174.45-71,332.36-185.36,446.64S173.89,2131-.5,2131V867c174.65,0,332.75,70.84,447.14,185.36C560.86,1166.71,631.5,1324.61,631.5,1499Z" fill="#12192c" stroke="#ffffff" stroke-miterlimit="10"/></g><g id="change5_2"><path d="M619.37,426h-4.53L401.29,713.64a53.12,53.12,0,1,0,14.47,10.71L623.9,444h815.6V426Z" fill="#12192c" stroke="#ffffff" stroke-miterlimit="10"/></g><g id="change5_3"><path d="M1352,1135.58H779.65a53,53,0,1,0,.15,18H1352Z" fill="#12192c" stroke="#ffffff" stroke-miterlimit="10"/></g><g id="change5_4"><path d="M1352,1845.58H779.65a53,53,0,1,0,.15,18H1352Z" fill="#12192c" stroke="#ffffff" stroke-miterlimit="10"/></g><g id="change5_5"><path d="M623.9,2558.5,413.84,2275.56a52.92,52.92,0,1,0-15,10l216,291H1439.5v-18Z" fill="#12192c" stroke="#ffffff" stroke-miterlimit="10"/></g><g id="change4_2"><path d="M1444.38,2412.11h1103a154.1,154.1,0,0,1,154.1,154.1v0a154.1,154.1,0,0,1-154.1,154.1h-1103a4.88,4.88,0,0,1-4.88-4.88V2417A4.88,4.88,0,0,1,1444.38,2412.11Z" fill="#ff9464"/></g><g id="change3_2"><path d="M1444.38,1700.65h1103a154.1,154.1,0,0,1,154.1,154.1v0a154.1,154.1,0,0,1-154.1,154.1h-1103a4.88,4.88,0,0,1-4.88-4.88V1705.53a4.88,4.88,0,0,1,4.88-4.88Z" fill="#ff7637"/></g><g id="change2_2"><path d="M1444.38,991.18h1103a154.1,154.1,0,0,1,154.1,154.1v0a154.1,154.1,0,0,1-154.1,154.1h-1103a4.88,4.88,0,0,1-4.88-4.88V996.06a4.88,4.88,0,0,1,4.88-4.88Z" fill="#ff5b10"/></g><g id="change1_2"><path d="M1444.38,280.18h1103a154.1,154.1,0,0,1,154.1,154.1v0a154.1,154.1,0,0,1-154.1,154.1h-1103a4.88,4.88,0,0,1-4.88-4.88V285.06a4.88,4.88,0,0,1,4.88-4.88Z" fill="#ff5000"/></g><g id="change1_3"><path d="M1439.5,661a226,226,0,1,1,159.81-66.19A224.55,224.55,0,0,1,1439.5,661Z" fill="#ff5000"/></g><g id="change5_6"><circle cx="1439.5" cy="435" fill="#12192c" r="186" stroke="#ffffff" stroke-miterlimit="10"/></g><g id="change2_3"><path d="M1439.5,1371a226,226,0,1,1,159.81-66.19A224.55,224.55,0,0,1,1439.5,1371Z" fill="#ff5b10"/></g><g id="change5_7"><circle cx="1439.5" cy="1145" fill="#12192c" r="186" stroke="#ffffff" stroke-miterlimit="10"/></g><g id="change3_3"><path d="M1439.5,2081a226,226,0,1,1,159.81-66.19A224.55,224.55,0,0,1,1439.5,2081Z" fill="#ff7637"/></g><g id="change5_8"><circle cx="1439.5" cy="1855" fill="#12192c" r="186" stroke="#ffffff" stroke-miterlimit="10"/></g><g id="change4_3"><path d="M1439.5,2791a226,226,0,1,1,159.81-66.19A224.55,224.55,0,0,1,1439.5,2791Z" fill="#ff9464"/></g><g id="change5_9"><circle cx="1439.5" cy="2565" fill="#12192c" r="186" stroke="#ffffff" stroke-miterlimit="10"/></g></svg>