<?xml version="1.0" encoding="UTF-8" standalone="no"?><svg xmlns="http://www.w3.org/2000/svg" xmlns:xlink="http://www.w3.org/1999/xlink" fill="#000000" height="430.48" viewBox="0 0 529.17 430.48" width="529.17"><path d="m112.9 430.23c-0.51709-0.53971 6.298-3.0936 15.145-5.6755 51.217-14.947 97.069-41.857 132.72-77.894 39.006-39.425 67.88-91.12 79.941-143.12l2.3322-10.055-5.022-2.1825c-2.7621-1.2004-20.777-8.9728-40.033-17.272-19.256-8.2992-34.597-15.498-34.091-15.997 0.50582-0.49907 50.23-36.774 110.5-80.61 81.323-59.151 109.7-79.184 110.05-77.691 0.69887 3.0033 44.899 273.49 44.728 273.72-0.0806 0.10688-17.111-7.1667-37.844-16.164-20.733-8.9969-38.378-16.097-39.211-15.777-0.83242 0.31934-2.7089 2.936-4.17 5.8147-5.2604 10.364-21.121 34.709-30.776 47.239-12.83 16.65-40.623 45.072-56.775 58.061-49.329 39.667-111.24 66.325-174.99 75.346-14.501 2.0521-71.015 3.8146-72.503 2.2611zm-112.9-3.5607c0-1.4947 51.321-296.07 51.95-298.19 0.67115-2.2592 2.3538-2.3028 60.511-1.5705 65.629 0.82649 73.524 1.5408 90.84 8.2185 12.314 4.7487 22.486 11.392 31.572 20.62 9.0221 9.1633 14.738 18.428 19.17 31.074 3.185 9.087 3.4105 11.013 3.4196 29.209 0.01 16.573-0.39806 20.896-2.7216 28.967-9.1454 31.764-32.219 55.563-65.727 67.791-18.257 6.663-26.565 7.6623-70.228 8.4468l-40.102 0.7206-9.215 52.354-9.215 52.354-30.127 0.32582c-16.57 0.17909-30.127 0.0367-30.127-0.32121zm156.5-157.13c21.925-5.7108 36.402-21.367 40.276-43.556 3.6599-20.964-3.5887-37.756-19.327-44.772-6.0074-2.678-8.3111-2.8891-39.255-3.5966-18.08-0.41324-33.282-0.40637-33.782 0.0153-0.80471 0.68-16.729 88.453-16.741 92.275-0.01 2.4433 59.253 2.1275 68.829-0.36677z" fill="#ff5000"/></svg>