<?xml version="1.0" encoding="UTF-8" standalone="no"?>
<!-- Created with Inkscape (http://www.inkscape.org/) -->

<svg
   width="2000"
   height="2000"
   viewBox="0 0 529.16665 529.16666"
   version="1.1"
   id="svg1"
   xml:space="preserve"
   inkscape:version="1.3 (0e150ed6c4, 2023-07-21)"
   sodipodi:docname="icon.svg"
   xmlns:inkscape="http://www.inkscape.org/namespaces/inkscape"
   xmlns:sodipodi="http://sodipodi.sourceforge.net/DTD/sodipodi-0.dtd"
   xmlns:xlink="http://www.w3.org/1999/xlink"
   xmlns="http://www.w3.org/2000/svg"
   xmlns:svg="http://www.w3.org/2000/svg"><sodipodi:namedview
     id="namedview1"
     pagecolor="#ffffff"
     bordercolor="#000000"
     borderopacity="0.25"
     inkscape:showpageshadow="2"
     inkscape:pageopacity="0.0"
     inkscape:pagecheckerboard="0"
     inkscape:deskcolor="#d1d1d1"
     inkscape:document-units="px"
     inkscape:zoom="0.18106587"
     inkscape:cx="1438.7029"
     inkscape:cy="1134.9461"
     inkscape:window-width="1920"
     inkscape:window-height="1009"
     inkscape:window-x="-8"
     inkscape:window-y="-8"
     inkscape:window-maximized="1"
     inkscape:current-layer="layer1" /><defs
     id="defs1"><linearGradient
       id="linearGradient2"
       inkscape:collect="always"><stop
         style="stop-color:#ff4b00;stop-opacity:1;"
         offset="0"
         id="stop2" /><stop
         style="stop-color:#ffa100;stop-opacity:1;"
         offset="0.44869018"
         id="stop5" /><stop
         style="stop-color:#ff7900;stop-opacity:1;"
         offset="0.67211968"
         id="stop4" /><stop
         style="stop-color:#ff2000;stop-opacity:1;"
         offset="1"
         id="stop3" /></linearGradient><linearGradient
       inkscape:collect="always"
       xlink:href="#linearGradient2"
       id="linearGradient3"
       x1="146.12546"
       y1="279.09964"
       x2="378.46494"
       y2="94.981544"
       gradientUnits="userSpaceOnUse"
       gradientTransform="matrix(1.7424699,0,0,1.7424699,-167.63268,-71.975256)" /></defs><g
     inkscape:label="Layer 1"
     inkscape:groupmode="layer"
     id="layer1"><path
       style="fill:url(#linearGradient3);fill-opacity:1;stroke-width:3.25061"
       d="m 157.43451,416.45164 c -0.36527,-0.38125 4.44889,-2.18531 10.69812,-4.00914 36.17938,-10.55868 68.56879,-29.5679 93.75427,-55.02414 27.55337,-27.84951 47.95041,-64.36639 56.47024,-101.09884 l 1.64749,-7.10293 -3.5475,-1.54174 c -1.95113,-0.84792 -14.67659,-6.33833 -28.27885,-12.20085 -13.60224,-5.86252 -24.43902,-10.9476 -24.0817,-11.30013 0.35731,-0.35254 35.48213,-25.97671 78.05517,-56.94266 57.44625,-41.78411 77.49075,-55.93524 77.73614,-54.88054 0.49368,2.12155 31.71645,193.19246 31.59556,193.35203 -0.0569,0.0755 -12.08703,-5.06254 -26.73291,-11.41793 -14.64592,-6.35537 -27.11008,-11.37061 -27.69814,-11.14497 -0.58802,0.22558 -1.91356,2.07398 -2.9457,4.10745 -3.71595,7.32132 -14.91963,24.51796 -21.74013,33.36927 -9.0631,11.76164 -28.6956,31.83882 -40.10558,41.01388 -34.84551,28.02039 -78.57965,46.85139 -123.61043,53.22398 -10.24334,1.44957 -50.16463,2.6946 -51.21605,1.59726 z M 77.682858,413.9364 c 0,-1.05582 36.252702,-209.14227 36.697522,-210.63966 0.4741,-1.59586 1.66273,-1.62672 42.74442,-1.10939 46.35987,0.58383 51.93718,1.08844 64.16901,5.80552 8.69842,3.35445 15.88414,8.04756 22.30201,14.56586 6.37317,6.47291 10.41075,13.01764 13.54172,21.95065 2.24987,6.41903 2.40916,7.77963 2.41563,20.6332 0.007,11.70724 -0.28119,14.76108 -1.92255,20.46213 -6.46025,22.43784 -22.75952,39.24909 -46.42898,47.88741 -12.89678,4.70673 -18.76525,5.41259 -49.60892,5.96678 l -28.32813,0.50903 -6.5094,36.98258 -6.50944,36.98263 -21.281404,0.23016 c -11.704807,0.12651 -21.281488,0.0259 -21.281488,-0.2269 z M 188.23125,302.94119 c 15.48803,-4.03411 25.71445,-15.09331 28.45082,-30.76756 2.58532,-14.8091 -2.53506,-26.67074 -13.65244,-31.62666 -4.24356,-1.89174 -5.87093,-2.04082 -27.72978,-2.5406 -12.77192,-0.29191 -23.51034,-0.28706 -23.8631,0.0108 -0.56844,0.48035 -11.81748,62.48303 -11.82606,65.18284 -0.007,1.72593 41.85599,1.50287 48.62056,-0.25908 z"
       id="path1"
       sodipodi:nodetypes="sssscsssssssscscssssssssccssccccscssccccc" /></g></svg>
